<svg height="512pt" viewBox="0 -4 512 511" width="512pt" xmlns="http://www.w3.org/2000/svg"><path d="m187.734375 154.101562h136.53125v341.332032h-136.53125zm0 0" fill="#586270"/><path d="m204.800781 461.300781h-17.066406c-4.714844 0-8.535156-3.820312-8.535156-8.535156 0-4.710937 3.820312-8.53125 8.535156-8.53125h17.066406c4.710938 0 8.53125 3.820313 8.53125 8.53125 0 4.714844-3.820312 8.535156-8.53125 8.535156zm0 0" fill="#919d9e"/><path d="m204.800781 410.101562h-17.066406c-4.714844 0-8.535156-3.820312-8.535156-8.535156 0-4.710937 3.820312-8.53125 8.535156-8.53125h17.066406c4.710938 0 8.53125 3.820313 8.53125 8.53125 0 4.714844-3.820312 8.535156-8.53125 8.535156zm0 0" fill="#919d9e"/><path d="m204.800781 358.898438h-17.066406c-4.714844 0-8.535156-3.820313-8.535156-8.53125 0-4.714844 3.820312-8.535157 8.535156-8.535157h17.066406c4.710938 0 8.53125 3.820313 8.53125 8.535157 0 4.710937-3.820312 8.53125-8.53125 8.53125zm0 0" fill="#919d9e"/><path d="m204.800781 307.699219h-17.066406c-4.714844 0-8.535156-3.820313-8.535156-8.53125 0-4.714844 3.820312-8.535157 8.535156-8.535157h17.066406c4.710938 0 8.53125 3.820313 8.53125 8.535157 0 4.710937-3.820312 8.53125-8.53125 8.53125zm0 0" fill="#919d9e"/><path d="m204.800781 256.5h-17.066406c-4.714844 0-8.535156-3.820312-8.535156-8.535156 0-4.710938 3.820312-8.53125 8.535156-8.53125h17.066406c4.710938 0 8.53125 3.820312 8.53125 8.53125 0 4.714844-3.820312 8.535156-8.53125 8.535156zm0 0" fill="#919d9e"/><path d="m204.800781 205.300781h-17.066406c-4.714844 0-8.535156-3.820312-8.535156-8.535156 0-4.710937 3.820312-8.53125 8.535156-8.53125h17.066406c4.710938 0 8.53125 3.820313 8.53125 8.53125 0 4.714844-3.820312 8.535156-8.53125 8.535156zm0 0" fill="#919d9e"/><path d="m324.265625 461.300781h-17.066406c-4.710938 0-8.53125-3.820312-8.53125-8.535156 0-4.710937 3.820312-8.53125 8.53125-8.53125h17.066406c4.714844 0 8.535156 3.820313 8.535156 8.53125 0 4.714844-3.820312 8.535156-8.535156 8.535156zm0 0" fill="#919d9e"/><path d="m324.265625 410.101562h-17.066406c-4.710938 0-8.53125-3.820312-8.53125-8.535156 0-4.710937 3.820312-8.53125 8.53125-8.53125h17.066406c4.714844 0 8.535156 3.820313 8.535156 8.53125 0 4.714844-3.820312 8.535156-8.535156 8.535156zm0 0" fill="#919d9e"/><path d="m324.265625 358.898438h-17.066406c-4.710938 0-8.53125-3.820313-8.53125-8.53125 0-4.714844 3.820312-8.535157 8.53125-8.535157h17.066406c4.714844 0 8.535156 3.820313 8.535156 8.535157 0 4.710937-3.820312 8.53125-8.535156 8.53125zm0 0" fill="#919d9e"/><path d="m324.265625 307.699219h-17.066406c-4.710938 0-8.53125-3.820313-8.53125-8.53125 0-4.714844 3.820312-8.535157 8.53125-8.535157h17.066406c4.714844 0 8.535156 3.820313 8.535156 8.535157 0 4.710937-3.820312 8.53125-8.535156 8.53125zm0 0" fill="#919d9e"/><path d="m324.265625 256.5h-17.066406c-4.710938 0-8.53125-3.820312-8.53125-8.535156 0-4.710938 3.820312-8.53125 8.53125-8.53125h17.066406c4.714844 0 8.535156 3.820312 8.535156 8.53125 0 4.714844-3.820312 8.535156-8.535156 8.535156zm0 0" fill="#919d9e"/><path d="m324.265625 205.300781h-17.066406c-4.710938 0-8.53125-3.820312-8.53125-8.535156 0-4.710937 3.820312-8.53125 8.53125-8.53125h17.066406c4.714844 0 8.535156 3.820313 8.535156 8.53125 0 4.714844-3.820312 8.535156-8.535156 8.535156zm0 0" fill="#919d9e"/><path d="m503.464844 128.5c-4.710938 0-8.53125-3.820312-8.53125-8.535156-.0625-56.527344-45.871094-102.335938-102.398438-102.398438-4.714844 0-8.535156-3.820312-8.535156-8.53125 0-4.714844 3.820312-8.535156 8.535156-8.535156 65.949219.070312 119.394532 53.515625 119.464844 119.464844 0 4.714844-3.820312 8.535156-8.535156 8.535156zm0 0" fill="#d8625e"/><path d="m469.332031 128.5c-4.710937 0-8.53125-3.820312-8.53125-8.535156-.042969-37.683594-30.582031-68.222656-68.265625-68.265625-4.714844 0-8.535156-3.820313-8.535156-8.53125 0-4.714844 3.820312-8.535157 8.535156-8.535157 47.105469.050782 85.28125 38.226563 85.332032 85.332032 0 2.265625-.898438 4.433594-2.5 6.035156-1.601563 1.601562-3.769532 2.5-6.035157 2.5zm0 0" fill="#d8625e"/><path d="m435.199219 128.5c-4.710938 0-8.53125-3.820312-8.53125-8.535156 0-18.847656-15.285157-34.132813-34.132813-34.132813-4.714844 0-8.535156-3.820312-8.535156-8.53125 0-4.714843 3.820312-8.535156 8.535156-8.535156 28.261719.027344 51.171875 22.9375 51.199219 51.199219 0 4.714844-3.820313 8.535156-8.535156 8.535156zm0 0" fill="#d8625e"/><path d="m8.535156 128.5c-4.714844 0-8.535156-3.820312-8.535156-8.535156.0703125-65.949219 53.515625-119.394532 119.464844-119.464844 4.714844 0 8.535156 3.820312 8.535156 8.535156 0 4.710938-3.820312 8.53125-8.535156 8.53125-56.527344.0625-102.335938 45.871094-102.398438 102.398438 0 4.714844-3.820312 8.535156-8.53125 8.535156zm0 0" fill="#d8625e"/><path d="m42.667969 128.5c-4.714844 0-8.535157-3.820312-8.535157-8.535156.050782-47.105469 38.226563-85.28125 85.332032-85.332032 4.714844 0 8.535156 3.820313 8.535156 8.535157 0 4.710937-3.820312 8.53125-8.535156 8.53125-37.683594.042969-68.222656 30.582031-68.265625 68.265625 0 4.714844-3.820313 8.535156-8.53125 8.535156zm0 0" fill="#d8625e"/><path d="m76.800781 128.5c-4.714843 0-8.535156-3.820312-8.535156-8.535156.027344-28.261719 22.9375-51.171875 51.199219-51.199219 4.714844 0 8.535156 3.820313 8.535156 8.535156 0 4.710938-3.820312 8.53125-8.535156 8.53125-18.847656 0-34.132813 15.285157-34.132813 34.132813 0 4.714844-3.820312 8.535156-8.53125 8.535156zm0 0" fill="#d8625e"/><path d="m384 503.964844h-51.199219c-4.714843 0-8.535156-3.820313-8.535156-8.53125v-341.332032c0-4.714843 3.820313-8.535156 8.535156-8.535156h51.199219c15.84375 0 31.035156 6.292969 42.238281 17.496094s17.496094 26.394531 17.496094 42.238281v238.933594c0 32.988281-26.746094 59.730469-59.734375 59.730469zm0 0" fill="#d8625e"/><path d="m128 145.566406h51.199219c4.714843 0 8.535156 3.820313 8.535156 8.535156v341.332032c0 4.710937-3.820313 8.53125-8.535156 8.53125h-51.199219c-15.84375 0-31.035156-6.292969-42.238281-17.492188-11.203125-11.203125-17.496094-26.398437-17.496094-42.238281v-238.933594c0-32.992187 26.746094-59.734375 59.734375-59.734375zm0 0" fill="#36b6d6"/><g fill="#3a3e48"><path d="m153.601562 239.433594c0 14.136718-11.464843 25.601562-25.601562 25.601562s-25.601562-11.464844-25.601562-25.601562c0-14.140625 11.464843-25.601563 25.601562-25.601563s25.601562 11.460938 25.601562 25.601563zm0 0"/><path d="m409.601562 341.832031c0 14.140625-11.464843 25.601563-25.601562 25.601563s-25.601562-11.460938-25.601562-25.601563c0-14.136719 11.464843-25.597656 25.601562-25.597656s25.601562 11.460937 25.601562 25.597656zm0 0"/><path d="m392.535156 435.699219c0 9.425781-7.644531 17.066406-17.070312 17.066406-9.425782 0-17.066406-7.640625-17.066406-17.066406s7.640624-17.066407 17.066406-17.066407c9.425781 0 17.070312 7.640626 17.070312 17.066407zm0 0"/><path d="m153.601562 188.234375h-17.066406c-4.714844 0-8.535156-3.820313-8.535156-8.535156 0-4.710938 3.820312-8.53125 8.535156-8.53125h17.066406c4.710938 0 8.53125 3.820312 8.53125 8.53125 0 4.714843-3.820312 8.535156-8.53125 8.535156zm0 0"/><path d="m375.464844 188.234375h-17.066406c-4.710938 0-8.53125-3.820313-8.53125-8.535156 0-4.710938 3.820312-8.53125 8.53125-8.53125h17.066406c4.714844 0 8.535156 3.820312 8.535156 8.53125 0 4.714843-3.820312 8.535156-8.535156 8.535156zm0 0"/><path d="m140.800781 320.5c0 7.070312-5.730469 12.800781-12.800781 12.800781s-12.800781-5.730469-12.800781-12.800781 5.730469-12.800781 12.800781-12.800781 12.800781 5.730469 12.800781 12.800781zm0 0"/><path d="m140.800781 363.167969c0 7.066406-5.730469 12.796875-12.800781 12.796875s-12.800781-5.730469-12.800781-12.796875c0-7.070313 5.730469-12.800781 12.800781-12.800781s12.800781 5.730468 12.800781 12.800781zm0 0"/><path d="m162.132812 341.832031c0 7.070313-5.730468 12.800781-12.800781 12.800781-7.066406 0-12.796875-5.730468-12.796875-12.800781 0-7.066406 5.730469-12.796875 12.796875-12.796875 7.070313 0 12.800781 5.730469 12.800781 12.796875zm0 0"/><path d="m119.464844 341.832031c0 7.070313-5.730469 12.800781-12.796875 12.800781-7.070313 0-12.800781-5.730468-12.800781-12.800781 0-7.066406 5.730468-12.796875 12.800781-12.796875 7.066406 0 12.796875 5.730469 12.796875 12.796875zm0 0"/><path d="m396.800781 218.101562c0 7.066407-5.730469 12.796876-12.800781 12.796876s-12.800781-5.730469-12.800781-12.796876c0-7.070312 5.730469-12.800781 12.800781-12.800781s12.800781 5.730469 12.800781 12.800781zm0 0"/><path d="m396.800781 260.765625c0 7.070313-5.730469 12.800781-12.800781 12.800781s-12.800781-5.730468-12.800781-12.800781c0-7.066406 5.730469-12.800781 12.800781-12.800781s12.800781 5.734375 12.800781 12.800781zm0 0"/><path d="m418.132812 239.433594c0 7.070312-5.730468 12.800781-12.800781 12.800781-7.066406 0-12.796875-5.730469-12.796875-12.800781 0-7.070313 5.730469-12.800782 12.796875-12.800782 7.070313 0 12.800781 5.730469 12.800781 12.800782zm0 0"/><path d="m375.464844 239.433594c0 7.070312-5.730469 12.800781-12.796875 12.800781-7.070313 0-12.800781-5.730469-12.800781-12.800781 0-7.070313 5.730468-12.800782 12.800781-12.800782 7.066406 0 12.796875 5.730469 12.796875 12.800782zm0 0"/><path d="m128 418.632812h17.066406c4.714844 0 8.535156 3.820313 8.535156 8.535157v17.066406c0 4.710937-3.820312 8.53125-8.535156 8.53125h-17.066406c-4.710938 0-8.535156-3.820313-8.535156-8.53125v-17.066406c0-4.714844 3.824218-8.535157 8.535156-8.535157zm0 0"/></g><path d="m68.265625 444.234375v-229.71875c-48.640625 45.628906-59.730469 167.96875-59.730469 229.71875 0 25.597656 8.53125 59.730469 34.132813 59.730469 24.140625 0 34.617187-8.199219 42.265625-18.414063-10.703125-11.089843-16.675782-25.90625-16.667969-41.316406zm0 0" fill="#586270"/><path d="m443.734375 444.234375v-229.71875c48.640625 45.628906 59.730469 167.96875 59.730469 229.71875 0 25.597656-8.53125 59.730469-34.132813 59.730469-24.140625 0-34.617187-8.199219-42.265625-18.414063 10.703125-11.089843 16.675782-25.90625 16.667969-41.316406zm0 0" fill="#586270"/></svg>