<?xml version="1.0" encoding="utf-8"?>
<!-- Generator: Adobe Illustrator 23.0.0, SVG Export Plug-In . SVG Version: 6.00 Build 0)  -->
<svg version="1.1" id="Calque_1" xmlns="http://www.w3.org/2000/svg" xmlns:xlink="http://www.w3.org/1999/xlink" x="0px" y="0px"
	 viewBox="0 0 511 511" style="enable-background:new 0 0 511 511;" xml:space="preserve">
<style type="text/css">
	.st0{fill:#CC7100;}
</style>
<g id="surface1">
	<path class="st0" d="M270.8-1C157.3-1,64.8,90.7,63.4,203.9l-24.7,72c-6.8,19.8-6.3,37.2,1.2,47.8c4.5,6.3,11.5,10,19.2,10h4.3
		v25.1c0,30.4,24.7,55.1,55.1,55.1c13.9,0,25.1,11.3,25.1,25.1v16c0,30.4,24.7,55.1,55.1,55.1h112.2c30.4,0,55.1-24.7,55.1-55.1
		v-64.3c31.8-16.4,58.8-40.8,78.5-70.9c22.1-33.7,33.7-72.9,33.7-113.4C478.2,92,385.1-1,270.8-1z M393.5,191.9L343,241.1l11.8,68.7
		c0.2,1.1,0.4,2.2,0.4,3.3c0,8.3-6.7,14.9-14.9,15c0,0,0,0-0.1,0c-2.4,0-4.8-0.6-7-1.7l-62.4-32.8l-62.4,32.8
		c-5,2.7-11.2,2.2-15.8-1.1c-4.6-3.3-6.9-9-6-14.6l11.9-69.5l-50.5-49.2c-4.1-4-5.6-9.9-3.8-15.3c1.8-5.4,6.4-9.4,12.1-10.2
		l69.8-10.1L257.4,93c2.5-5.1,7.7-8.3,13.4-8.3s10.9,3.2,13.4,8.3l31.2,63.2l69.8,10.1c5.6,0.8,10.3,4.8,12.1,10.2
		C399,182,397.6,187.9,393.5,191.9z"/>
</g>
</svg>
